<?xml version="1.0" encoding="UTF-8" standalone="no"?>
<!-- Created with Inkscape (http://www.inkscape.org/) -->

<svg
   width="1000"
   height="1000"
   viewBox="0 0 264.58333 264.58334"
   version="1.1"
   id="svg5"
   xmlns="http://www.w3.org/2000/svg"
   xmlns:svg="http://www.w3.org/2000/svg">
  <defs
     id="defs2">
    <filter
       style="color-interpolation-filters:sRGB;"
       id="filter16904"
       x="0"
       y="0"
       width="1"
       height="1">
      <feColorMatrix
         values="1 0 0 0 0 0 1 0 0 0 0 0 1 0 0 0 0 0 1 0"
         id="feColorMatrix16902" />
    </filter>
    <filter
       style="color-interpolation-filters:sRGB;"
       id="filter16908"
       x="0"
       y="0"
       width="1"
       height="1">
      <feColorMatrix
         values="1 0 0 0 0 0 1 0 0 0 0 0 1 0 0 0 0 0 1 0"
         id="feColorMatrix16906" />
    </filter>
  </defs>
  <g
     id="layer1">
    <g
       aria-label="Tribe"
       id="text4059"
       style="font-size:43.6644px;line-height:1.25;stroke-width:0.227419;filter:url(#filter16904)"
       transform="matrix(1.2083359,0,0,1.2083359,2.1936814,12.923478)">
      <path
         d="m 28.640654,90.472806 h -6.353511 c -1.975701,0 -3.723982,-0.483265 -5.244845,-1.449794 -2.103623,-1.336085 -3.155435,-3.36864 -3.155435,-6.097665 v -8.975934 l 37.737297,-0.02132 c 2.132051,0 3.951401,0.440624 5.45805,1.321871 2.217333,1.293445 3.325999,3.375748 3.325999,6.246909 v 8.975933 h -14.71115 v 27.119684 h -8.187074 c -2.08941,-0.0853 -3.873226,-0.53301 -5.351448,-1.34319 -2.331042,-1.27923 -3.50367,-3.3189 -3.517883,-6.11899 z m 9.476993,3.894841"
         style="font-family:Beams;-inkscape-font-specification:Beams"
         id="path10832" />
      <path
         d="m 104.00864,92.924665 q 0,0.639615 -0.064,1.300551 0,-0.02132 -0.0213,0.234525 -0.0426,0.618295 -0.12792,1.066025 0,0.02132 -0.0213,0.08528 -1.17263,6.865204 -8.272358,8.549524 l 8.123118,13.43192 H 64.672309 V 89.108294 h 11.76892 L 64.672309,73.928093 h 28.526838 q 4.114858,0 7.014443,2.579781 0.38377,0.341128 0.78886,0.788859 2.98487,2.984871 3.00619,8.272357 0,0 0,0.02132 z"
         style="font-family:Beams;-inkscape-font-specification:Beams"
         id="path10834" />
      <path
         d="m 117.16339,117.59249 q -3.17675,-0.12792 -5.39408,-1.36451 -3.49657,-1.91885 -3.49657,-6.18295 V 73.928093 l 8.18708,0.02132 q 3.21939,0 5.52201,1.300551 3.36864,1.918846 3.36864,6.225588 v 36.116938 z"
         style="font-family:Beams;-inkscape-font-specification:Beams"
         id="path10836" />
      <path
         d="M 129.61457,117.59249 V 73.928093 H 166.9681 L 153.40826,92.32769 h 0.57565 q 5.0956,0 8.69877,3.709769 3.60316,3.688447 3.60316,8.933291 0,5.22353 -3.60316,8.91197 -3.60317,3.70977 -8.69877,3.70977 z"
         style="font-family:Beams;-inkscape-font-specification:Beams"
         id="path10838" />
      <path
         d="m 206.41104,112.02784 q 0.17056,-0.25585 0.23452,-0.36245 -0.064,0.1066 -0.23452,0.36245 z m 0.23452,-0.36245 q -0.064,0.0853 -0.23452,0.36245 0.17056,-0.27717 0.23452,-0.36245 z m 1.91885,-7.22765 v 0.12792 q 0.0213,0.36245 0.0213,0.66094 0,3.30468 -1.94017,6.43879 -0.064,0.0853 -0.23452,0.36245 0,0 -0.0213,0.0213 -0.0213,0.0213 -0.0427,0.0426 -0.0213,0.064 -0.0426,0.0853 -2.25997,3.38996 -7.54746,4.73315 -2.64374,0.68226 -4.83975,0.68226 H 171.2322 V 86.656436 q 0,-6.801242 3.79505,-10.148562 2.89959,-2.579781 7.01445,-2.579781 h 26.52271 l -12.30194,16.566034 h 12.21666 l -8.1018,10.788173 h -9.97799 l -2.43054,3.15544 z"
         style="font-family:Beams;-inkscape-font-specification:Beams"
         id="path10840" />
    </g>
    <path
       id="path10832-3"
       style="font-size:43.6644px;line-height:1.25;font-family:Beams;-inkscape-font-specification:Beams;fill:#0082f4;fill-opacity:1;stroke-width:0.274799;filter:url(#filter16908)"
       d="m 64.572979,102.25312 -45.599248,0.0262 v 10.84562 c 0,3.29759 1.270858,5.75378 3.812738,7.36822 1.83771,1.16789 3.94998,1.75152 6.33729,1.75152 h 27.61082 c 0.0678,-0.002 0.1357,-0.004 0.20356,-0.005 0.0502,-3.1e-4 0.10089,6e-5 0.15111,6.4e-4 0.0405,6.4e-4 0.0806,0.001 0.12114,0.004 0.016,6.4e-4 0.0328,-9.7e-4 0.0481,0.004 0.0394,0.0121 0.0766,0.0302 0.11489,0.0456 0.0162,-9.7e-4 0.025,-9.7e-4 0.0437,-0.002 -10e-4,-0.0174 -0.006,-0.0266 -0.006,-0.0469 0.0301,0.0165 0.0452,0.0284 0.0718,0.0437 0.0254,-0.001 0.068,-0.004 0.0718,-0.004 0.0471,-9.6e-4 0.0746,9.6e-4 0.0987,0.0109 h 0.13362 c 0.0168,-0.0162 0.0323,-0.0296 0.0512,-0.0506 h 17.34902 v -10.84564 c 0,-3.46932 -1.33951,-5.98575 -4.01879,-7.54867 -1.82054,-1.06484 -4.01895,-1.59728 -6.59518,-1.59728 z" />
    <g
       aria-label="Tribe"
       id="g16938"
       style="font-size:43.6644px;line-height:1.25;stroke-width:0.227419;filter:url(#filter16904)"
       transform="matrix(1.2083359,0,0,1.2083359,2.1936814,12.923478)">
      <path
         d="m 28.640654,90.472806 h -6.353511 c -1.975701,0 -3.723982,-0.483265 -5.244845,-1.449794 -2.103623,-1.336085 -3.155435,-3.36864 -3.155435,-6.097665 v -8.975934 l 37.737297,-0.02132 c 2.132051,0 3.951401,0.440624 5.45805,1.321871 2.217333,1.293445 3.325999,3.375748 3.325999,6.246909 v 8.975933 h -14.71115 v 27.119684 h -8.187074 c -2.08941,-0.0853 -3.873226,-0.53301 -5.351448,-1.34319 -2.331042,-1.27923 -3.50367,-3.3189 -3.517883,-6.11899 z m 9.476993,3.894841"
         style="font-family:Beams;-inkscape-font-specification:Beams"
         id="path16928" />
      <path
         d="m 104.00864,92.924665 q 0,0.639615 -0.064,1.300551 0,-0.02132 -0.0213,0.234525 -0.0426,0.618295 -0.12792,1.066025 0,0.02132 -0.0213,0.08528 -1.17263,6.865204 -8.272358,8.549524 l 8.123118,13.43192 H 64.672309 V 89.108294 h 11.76892 L 64.672309,73.928093 h 28.526838 q 4.114858,0 7.014443,2.579781 0.38377,0.341128 0.78886,0.788859 2.98487,2.984871 3.00619,8.272357 0,0 0,0.02132 z"
         style="font-family:Beams;-inkscape-font-specification:Beams"
         id="path16930" />
      <path
         d="m 117.16339,117.59249 q -3.17675,-0.12792 -5.39408,-1.36451 -3.49657,-1.91885 -3.49657,-6.18295 V 73.928093 l 8.18708,0.02132 q 3.21939,0 5.52201,1.300551 3.36864,1.918846 3.36864,6.225588 v 36.116938 z"
         style="font-family:Beams;-inkscape-font-specification:Beams"
         id="path16932" />
      <path
         d="M 129.61457,117.59249 V 73.928093 H 166.9681 L 153.40826,92.32769 h 0.57565 q 5.0956,0 8.69877,3.709769 3.60316,3.688447 3.60316,8.933291 0,5.22353 -3.60316,8.91197 -3.60317,3.70977 -8.69877,3.70977 z"
         style="font-family:Beams;-inkscape-font-specification:Beams"
         id="path16934" />
      <path
         d="m 206.41104,112.02784 q 0.17056,-0.25585 0.23452,-0.36245 -0.064,0.1066 -0.23452,0.36245 z m 0.23452,-0.36245 q -0.064,0.0853 -0.23452,0.36245 0.17056,-0.27717 0.23452,-0.36245 z m 1.91885,-7.22765 v 0.12792 q 0.0213,0.36245 0.0213,0.66094 0,3.30468 -1.94017,6.43879 -0.064,0.0853 -0.23452,0.36245 0,0 -0.0213,0.0213 -0.0213,0.0213 -0.0427,0.0426 -0.0213,0.064 -0.0426,0.0853 -2.25997,3.38996 -7.54746,4.73315 -2.64374,0.68226 -4.83975,0.68226 H 171.2322 V 86.656436 q 0,-6.801242 3.79505,-10.148562 2.89959,-2.579781 7.01445,-2.579781 h 26.52271 l -12.30194,16.566034 h 12.21666 l -8.1018,10.788173 h -9.97799 l -2.43054,3.15544 z"
         style="font-family:Beams;-inkscape-font-specification:Beams"
         id="path16936" />
    </g>
    <path
       id="path16940"
       style="font-size:43.6644px;line-height:1.25;font-family:Beams;-inkscape-font-specification:Beams;fill:#0082f4;fill-opacity:1;stroke-width:0.274799;filter:url(#filter16908)"
       d="m 64.572979,102.25312 -45.599248,0.0262 v 10.84562 c 0,3.29759 1.270858,5.75378 3.812738,7.36822 1.83771,1.16789 3.94998,1.75152 6.33729,1.75152 h 27.61082 c 0.0678,-0.002 0.1357,-0.004 0.20356,-0.005 0.0502,-3.1e-4 0.10089,6e-5 0.15111,6.4e-4 0.0405,6.4e-4 0.0806,0.001 0.12114,0.004 0.016,6.4e-4 0.0328,-9.7e-4 0.0481,0.004 0.0394,0.0121 0.0766,0.0302 0.11489,0.0456 0.0162,-9.7e-4 0.025,-9.7e-4 0.0437,-0.002 -10e-4,-0.0174 -0.006,-0.0266 -0.006,-0.0469 0.0301,0.0165 0.0452,0.0284 0.0718,0.0437 0.0254,-0.001 0.068,-0.004 0.0718,-0.004 0.0471,-9.6e-4 0.0746,9.6e-4 0.0987,0.0109 h 0.13362 c 0.0168,-0.0162 0.0323,-0.0296 0.0512,-0.0506 h 17.34902 v -10.84564 c 0,-3.46932 -1.33951,-5.98575 -4.01879,-7.54867 -1.82054,-1.06484 -4.01895,-1.59728 -6.59518,-1.59728 z" />
    <g
       aria-label="Tribe"
       id="g16954"
       style="font-size:43.6644px;line-height:1.25;stroke-width:0.227419;filter:url(#filter16904);fill:#46474d;fill-opacity:1"
       transform="matrix(1.2083359,0,0,1.2083359,2.1936814,12.923478)">
      <path
         d="m 28.640654,90.472806 h -6.353511 c -1.975701,0 -3.723982,-0.483265 -5.244845,-1.449794 -2.103623,-1.336085 -3.155435,-3.36864 -3.155435,-6.097665 v -8.975934 l 37.737297,-0.02132 c 2.132051,0 3.951401,0.440624 5.45805,1.321871 2.217333,1.293445 3.325999,3.375748 3.325999,6.246909 v 8.975933 h -14.71115 v 27.119684 h -8.187074 c -2.08941,-0.0853 -3.873226,-0.53301 -5.351448,-1.34319 -2.331042,-1.27923 -3.50367,-3.3189 -3.517883,-6.11899 z m 9.476993,3.894841"
         style="font-family:Beams;-inkscape-font-specification:Beams;fill:#46474d;fill-opacity:1"
         id="path16944" />
      <path
         d="m 104.00864,92.924665 q 0,0.639615 -0.064,1.300551 0,-0.02132 -0.0213,0.234525 -0.0426,0.618295 -0.12792,1.066025 0,0.02132 -0.0213,0.08528 -1.17263,6.865204 -8.272358,8.549524 l 8.123118,13.43192 H 64.672309 V 89.108294 h 11.76892 L 64.672309,73.928093 h 28.526838 q 4.114858,0 7.014443,2.579781 0.38377,0.341128 0.78886,0.788859 2.98487,2.984871 3.00619,8.272357 0,0 0,0.02132 z"
         style="font-family:Beams;-inkscape-font-specification:Beams;fill:#46474d;fill-opacity:1"
         id="path16946" />
      <path
         d="m 117.16339,117.59249 q -3.17675,-0.12792 -5.39408,-1.36451 -3.49657,-1.91885 -3.49657,-6.18295 V 73.928093 l 8.18708,0.02132 q 3.21939,0 5.52201,1.300551 3.36864,1.918846 3.36864,6.225588 v 36.116938 z"
         style="font-family:Beams;-inkscape-font-specification:Beams;fill:#46474d;fill-opacity:1"
         id="path16948" />
      <path
         d="M 129.61457,117.59249 V 73.928093 H 166.9681 L 153.40826,92.32769 h 0.57565 q 5.0956,0 8.69877,3.709769 3.60316,3.688447 3.60316,8.933291 0,5.22353 -3.60316,8.91197 -3.60317,3.70977 -8.69877,3.70977 z"
         style="font-family:Beams;-inkscape-font-specification:Beams;fill:#46474d;fill-opacity:1"
         id="path16950" />
      <path
         d="m 206.41104,112.02784 q 0.17056,-0.25585 0.23452,-0.36245 -0.064,0.1066 -0.23452,0.36245 z m 0.23452,-0.36245 q -0.064,0.0853 -0.23452,0.36245 0.17056,-0.27717 0.23452,-0.36245 z m 1.91885,-7.22765 v 0.12792 q 0.0213,0.36245 0.0213,0.66094 0,3.30468 -1.94017,6.43879 -0.064,0.0853 -0.23452,0.36245 0,0 -0.0213,0.0213 -0.0213,0.0213 -0.0427,0.0426 -0.0213,0.064 -0.0426,0.0853 -2.25997,3.38996 -7.54746,4.73315 -2.64374,0.68226 -4.83975,0.68226 H 171.2322 V 86.656436 q 0,-6.801242 3.79505,-10.148562 2.89959,-2.579781 7.01445,-2.579781 h 26.52271 l -12.30194,16.566034 h 12.21666 l -8.1018,10.788173 h -9.97799 l -2.43054,3.15544 z"
         style="font-family:Beams;-inkscape-font-specification:Beams;fill:#46474d;fill-opacity:1"
         id="path16952" />
    </g>
    <path
       id="path16956"
       style="font-size:43.6644px;line-height:1.25;font-family:Beams;-inkscape-font-specification:Beams;fill:#46a2f7;fill-opacity:1;stroke-width:0.274799;filter:url(#filter16908)"
       d="m 64.572979,102.25312 -45.599248,0.0262 v 10.84562 c 0,3.29759 1.270858,5.75378 3.812738,7.36822 1.83771,1.16789 3.94998,1.75152 6.33729,1.75152 h 27.61082 c 0.0678,-0.002 0.1357,-0.004 0.20356,-0.005 0.0502,-3.1e-4 0.10089,6e-5 0.15111,6.4e-4 0.0405,6.4e-4 0.0806,0.001 0.12114,0.004 0.016,6.4e-4 0.0328,-9.7e-4 0.0481,0.004 0.0394,0.0121 0.0766,0.0302 0.11489,0.0456 0.0162,-9.7e-4 0.025,-9.7e-4 0.0437,-0.002 -10e-4,-0.0174 -0.006,-0.0266 -0.006,-0.0469 0.0301,0.0165 0.0452,0.0284 0.0718,0.0437 0.0254,-0.001 0.068,-0.004 0.0718,-0.004 0.0471,-9.6e-4 0.0746,9.6e-4 0.0987,0.0109 h 0.13362 c 0.0168,-0.0162 0.0323,-0.0296 0.0512,-0.0506 h 17.34902 v -10.84564 c 0,-3.46932 -1.33951,-5.98575 -4.01879,-7.54867 -1.82054,-1.06484 -4.01895,-1.59728 -6.59518,-1.59728 z" />
  </g>
</svg>
